<svg width="20" height="20" viewBox="0 0 20 20" fill="none" xmlns="http://www.w3.org/2000/svg">
<path d="M19.2188 7.73438H18.2104C18.0228 7.05063 17.7513 6.3974 17.399 5.7814L18.1107 5.06683C18.4151 4.76105 18.414 4.26636 18.1084 3.96194L16.0048 1.86707C15.699 1.5625 15.2043 1.56357 14.8999 1.86935L14.1882 2.58392C13.5811 2.23984 12.9379 1.97418 12.2656 1.78955V0.78125C12.2656 0.349731 11.9159 0 11.4844 0H8.51562C8.08411 0 7.73438 0.349731 7.73438 0.78125V1.78955C7.05063 1.97723 6.3974 2.24869 5.7814 2.60101L5.06683 1.88934C4.76166 1.58554 4.26697 1.58539 3.96194 1.89163L1.86707 3.99521C1.56265 4.30099 1.56357 4.79553 1.86935 5.1001L2.58392 5.81177C2.23984 6.41891 1.97418 7.06207 1.78955 7.73438H0.78125C0.349731 7.73438 0 8.08411 0 8.51562V11.4844C0 11.9159 0.349731 12.2656 0.78125 12.2656H1.78955C1.97723 12.9494 2.24869 13.6026 2.60101 14.2186L1.88934 14.9332C1.58508 15.2388 1.586 15.7336 1.89163 16.0381L3.99521 18.1329C4.30099 18.4375 4.79568 18.4364 5.1001 18.1306L5.81177 17.4161C6.41891 17.7602 7.06207 18.0258 7.73438 18.2104V19.2188C7.73438 19.6503 8.08411 20 8.51562 20H11.4844C11.9159 20 12.2656 19.6503 12.2656 19.2188V18.2104C12.9494 18.0228 13.6026 17.7513 14.2186 17.399L14.9332 18.1107C15.239 18.4151 15.7336 18.414 16.0381 18.1084L18.1329 16.0048C18.4373 15.699 18.4364 15.2045 18.1306 14.8999L17.4161 14.1882C17.7602 13.5811 18.0258 12.9379 18.2104 12.2656H19.2188C19.6503 12.2656 20 11.9159 20 11.4844V8.51562C20 8.08411 19.6503 7.73438 19.2188 7.73438ZM18.4375 10.7031H17.5916C17.2176 10.7031 16.8959 10.9682 16.8246 11.3353C16.6476 12.2455 16.2953 13.0981 15.7776 13.8696C15.5692 14.1801 15.6099 14.5947 15.8749 14.8586L16.4746 15.4558L15.4823 16.4522L14.8827 15.8551C14.6178 15.5911 14.203 15.5521 13.8933 15.7617C13.116 16.2881 12.2554 16.6457 11.3353 16.8246C10.9682 16.8959 10.7031 17.2176 10.7031 17.5916V18.4375H9.29688V17.5916C9.29688 17.2176 9.03183 16.8959 8.6647 16.8246C7.75452 16.6476 6.90186 16.2953 6.13037 15.7776C5.82001 15.5692 5.40527 15.6099 5.14145 15.8749L4.54422 16.4746L3.54782 15.4823L4.1449 14.8827C4.40887 14.6178 4.44794 14.203 4.23828 13.8933C3.71185 13.116 3.35434 12.2554 3.17535 11.3353C3.1041 10.9682 2.78244 10.7031 2.40845 10.7031H1.5625V9.29688H2.40845C2.78244 9.29688 3.1041 9.03183 3.17535 8.6647C3.35236 7.75452 3.70468 6.90186 4.22241 6.13037C4.43085 5.81985 4.39011 5.40527 4.12506 5.14145L3.52539 4.54422L4.51767 3.54782L5.11734 4.1449C5.38223 4.40887 5.79712 4.44794 6.10672 4.23828C6.884 3.71185 7.7446 3.35434 8.6647 3.17535C9.03183 3.1041 9.29688 2.78244 9.29688 2.40845V1.5625H10.7031V2.40845C10.7031 2.78244 10.9682 3.1041 11.3353 3.17535C12.2455 3.35236 13.0981 3.70468 13.8696 4.22241C14.1801 4.43085 14.5947 4.39011 14.8586 4.12506L15.4558 3.52539L16.4522 4.51767L15.8551 5.11734C15.5911 5.38223 15.5521 5.79697 15.7617 6.10672C16.2881 6.884 16.6457 7.7446 16.8246 8.6647C16.8959 9.03183 17.2174 9.29688 17.5914 9.29688H18.4375V10.7031ZM10 5.047C7.26898 5.047 5.047 7.26898 5.047 10C5.047 12.731 7.26898 14.953 10 14.953C12.731 14.953 14.953 12.731 14.953 10C14.953 7.26898 12.731 5.047 10 5.047ZM10 13.3905C8.13049 13.3905 6.6095 11.8695 6.6095 10C6.6095 8.13049 8.13049 6.6095 10 6.6095C11.8695 6.6095 13.3905 8.13049 13.3905 10C13.3905 11.8695 11.8695 13.3905 10 13.3905Z"/>
</svg>
