<svg width="20" height="20" viewBox="0 0 20 20" fill="none" xmlns="http://www.w3.org/2000/svg">
<g clip-path="url(#clip0)">
<path d="M9.26001 19.4711L8.09291 16.0281C7.44833 14.1266 5.94791 12.577 3.97205 11.9073L0.529116 10.7402C-0.176431 10.501 -0.176313 9.49934 0.529116 9.2602L3.97205 8.09309C5.87353 7.44856 7.42314 5.94806 8.09291 3.97224L9.26001 0.529346C9.49919 -0.176201 10.5009 -0.176045 10.74 0.529346L11.9071 3.97224C12.5517 5.87372 14.0521 7.42333 16.028 8.09309L19.4709 9.2602C20.1765 9.49938 20.1763 10.5011 19.4709 10.7402L16.028 11.9073C14.1266 12.5518 12.5769 14.0523 11.9071 16.0281L10.74 19.4711C10.5008 20.1766 9.49912 20.1764 9.26001 19.4711V19.4711ZM3.2138 10.0002L4.47376 10.4272C6.82666 11.2248 8.74416 13.0815 9.57294 15.5264L10 16.7864L10.4271 15.5264C11.2247 13.1735 13.0814 11.256 15.5263 10.4272L16.7862 10.0002L15.5263 9.57305C13.1734 8.77548 11.2559 6.9188 10.4271 4.47388L10 3.21392L9.57291 4.47388C8.77533 6.82677 6.91865 8.74427 4.47376 9.57305L3.2138 10.0002ZM5.4063 5.40641C5.71146 5.10126 5.71146 4.60649 5.4063 4.30138L3.84357 2.73868C3.53845 2.4336 3.04369 2.4336 2.73857 2.73868C2.43341 3.04384 2.43341 3.53856 2.73857 3.84372L4.3013 5.40645C4.60642 5.71149 5.10107 5.71157 5.4063 5.40641V5.40641ZM15.6987 5.40641L17.2615 3.84368C17.5666 3.53852 17.5666 3.0438 17.2615 2.73864C16.9563 2.43356 16.4616 2.43356 16.1565 2.73864L14.5937 4.30138C14.2886 4.60653 14.2886 5.10126 14.5937 5.40641C14.8989 5.71149 15.3935 5.71157 15.6987 5.40641V5.40641ZM3.84357 17.2616L5.4063 15.6989C5.71146 15.3937 5.71146 14.899 5.4063 14.5938C5.10119 14.2888 4.60642 14.2888 4.3013 14.5938L2.73857 16.1566C2.43341 16.4617 2.43341 16.9565 2.73857 17.2616C3.04373 17.5667 3.53837 17.5668 3.84357 17.2616V17.2616ZM17.2615 17.2616C17.5666 16.9565 17.5666 16.4617 17.2615 16.1566L15.6987 14.5938C15.3936 14.2888 14.8988 14.2888 14.5937 14.5938C14.2886 14.899 14.2886 15.3938 14.5937 15.6989L16.1565 17.2616C16.4616 17.5667 16.9562 17.5668 17.2615 17.2616V17.2616Z" fill="#334D6E"/>
</g>
<defs>
<clipPath id="clip0">
<rect width="20" height="20" fill="white"/>
</clipPath>
</defs>
</svg>
