<svg width="20" height="20" viewBox="0 0 20 20" fill="none" xmlns="http://www.w3.org/2000/svg">
<g clip-path="url(#clip0)">
<path d="M16.7578 0H6.20987C5.77835 0 5.42862 0.349731 5.42862 0.78125V2.9689H3.24219C2.81067 2.9689 2.46094 3.31863 2.46094 3.75015V19.2188C2.46094 19.6503 2.81067 20 3.24219 20H13.7901C14.2216 20 14.5714 19.6503 14.5714 19.2188V17.0311H16.7578C17.1893 17.0311 17.5391 16.6814 17.5391 16.2498V0.78125C17.5391 0.349731 17.1893 0 16.7578 0V0ZM13.0089 18.4375H4.02344V4.5314H13.0089V18.4375ZM15.9766 15.4686H14.5714V3.75015C14.5714 3.31863 14.2216 2.9689 13.7901 2.9689H6.99112V1.5625H15.9766V15.4686Z" fill="#334D6E"/>
</g>
<defs>
<clipPath id="clip0">
<rect width="20" height="20" fill="white"/>
</clipPath>
</defs>
</svg>
