<svg width="20" height="20" viewBox="0 0 20 20" fill="none" xmlns="http://www.w3.org/2000/svg">
<g clip-path="url(#clip0)">
<path d="M8.1301 0.0393066H0.782074C0.350708 0.0393066 0.000976562 0.389038 0.000976562 0.820557V8.16675C0.000976562 8.59827 0.350708 8.948 0.782074 8.948H8.1301C8.56146 8.948 8.91119 8.59811 8.91119 8.16675V0.820557C8.91135 0.389038 8.56146 0.0393066 8.1301 0.0393066ZM7.34885 7.3855H1.56332V1.60181H7.34885V7.3855ZM19.2188 0.0393066H11.8709C11.4396 0.0393066 11.0897 0.389038 11.0897 0.820557V8.16675C11.0897 8.59827 11.4396 8.948 11.8709 8.948H19.2188C19.6503 8.948 20.0001 8.59811 20.0001 8.16675V0.820557C20.0001 0.389038 19.6503 0.0393066 19.2188 0.0393066ZM18.4377 7.3855H12.6522V1.60181H18.4377V7.3855ZM19.2188 11.052H11.8709C11.4396 11.052 11.0897 11.4018 11.0897 11.8331V19.1793C11.0897 19.6108 11.4396 19.9606 11.8709 19.9606H19.2188C19.6503 19.9606 20.0001 19.6108 20.0001 19.1793V11.8331C20.0001 11.4018 19.6503 11.052 19.2188 11.052ZM18.4377 18.3982H12.6522V12.6144H18.4377V18.3982Z" fill="#109CF1"/>
</g>
<defs>
<clipPath id="clip0">
<rect width="20" height="20" fill="white"/>
</clipPath>
</defs>
</svg>
