<svg width="20" height="20" viewBox="0 0 20 20" fill="none" xmlns="http://www.w3.org/2000/svg">
<path d="M10.7812 7.87323V0.78125C10.7812 0.349731 10.4315 0 10 0C9.56848 0 9.21875 0.349731 9.21875 0.78125V7.87323C8.35327 8.19229 7.73438 9.02512 7.73438 10C7.73438 10.9749 8.35327 11.8077 9.21875 12.1268V19.2188C9.21875 19.6503 9.56848 20 10 20C10.4315 20 10.7812 19.6503 10.7812 19.2188V12.1268C11.6467 11.8077 12.2656 10.9749 12.2656 10C12.2656 9.02512 11.6467 8.19229 10.7812 7.87323ZM10 10.7031C9.61227 10.7031 9.29688 10.3877 9.29688 10C9.29688 9.61227 9.61227 9.29688 10 9.29688C10.3877 9.29688 10.7031 9.61227 10.7031 10C10.7031 10.3877 10.3877 10.7031 10 10.7031ZM3.78906 10.842V0.78125C3.78906 0.349731 3.43933 0 3.00781 0C2.57629 0 2.22656 0.349731 2.22656 0.78125V10.842C1.36108 11.161 0.742188 11.9939 0.742188 12.9688C0.742188 13.9436 1.36108 14.7765 2.22656 15.0955V19.2188C2.22656 19.6503 2.57629 20 3.00781 20C3.43933 20 3.78906 19.6503 3.78906 19.2188V15.0955C4.65454 14.7765 5.27344 13.9436 5.27344 12.9688C5.27344 11.9939 4.65454 11.161 3.78906 10.842ZM3.00781 13.6719C2.62009 13.6719 2.30469 13.3565 2.30469 12.9688C2.30469 12.581 2.62009 12.2656 3.00781 12.2656C3.39554 12.2656 3.71094 12.581 3.71094 12.9688C3.71094 13.3565 3.39554 13.6719 3.00781 13.6719ZM17.7734 10.842V0.78125C17.7734 0.349731 17.4237 0 16.9922 0C16.5607 0 16.2109 0.349731 16.2109 0.78125V10.842C15.3455 11.161 14.7266 11.9939 14.7266 12.9688C14.7266 13.9436 15.3455 14.7765 16.2109 15.0955V19.2188C16.2109 19.6503 16.5607 20 16.9922 20C17.4237 20 17.7734 19.6503 17.7734 19.2188V15.0955C18.6389 14.7765 19.2578 13.9436 19.2578 12.9688C19.2578 11.9939 18.6389 11.161 17.7734 10.842ZM16.9922 13.6719C16.6045 13.6719 16.2891 13.3565 16.2891 12.9688C16.2891 12.581 16.6045 12.2656 16.9922 12.2656C17.3799 12.2656 17.6953 12.581 17.6953 12.9688C17.6953 13.3565 17.3799 13.6719 16.9922 13.6719Z" fill="#334D6E"/>
</svg>
